<?xml version="1.0" encoding="utf-8"?>
<!-- Generator: Adobe Illustrator 22.1.0, SVG Export Plug-In . SVG Version: 6.00 Build 0)  -->
<svg version="1.1" id="Warstwa_1" xmlns="http://www.w3.org/2000/svg" xmlns:xlink="http://www.w3.org/1999/xlink" x="0px" y="0px"
	 viewBox="0 0 1980 1090" style="enable-background:new 0 0 1980 1090;" xml:space="preserve">
<style type="text/css">
	.st0{fill:none;stroke:#000000;stroke-miterlimit:10;}
</style>
<path class="st0" d="M399.1,266c-0.6,0-1.2,0-1.8,0c0.2-0.1,0.4-0.3,0.6-0.4C398.3,265.7,398.7,265.9,399.1,266z"/>
<path class="st0" d="M491.6,345.8c0.4,2.8,0.5,5.7,0.5,8.6c0,2.4-0.1,4.7-0.4,7"/>
<path class="st0" d="M531.8,371.5c-0.6-0.8-1.1-1.5-1.7-2.3c-0.1-0.1-0.1-0.2-0.2-0.2c-0.6-0.9-1.2-1.7-1.8-2.6
	c-0.7-1-1.4-2.1-2.1-3.1c-0.2-0.3-0.4-0.6-0.6-0.9c-0.5-0.8-1-1.5-1.5-2.3c0.6,0.8,1.1,1.5,1.6,2.3
	C527.8,365.4,529.8,368.4,531.8,371.5z"/>
<path class="st0" d="M637.3,351c-1-2.3-2-4.6-2.8-6.9C635.5,346.4,636.4,348.7,637.3,351z"/>
<path class="st0" d="M531.8,371.5c-0.6-0.8-1.1-1.5-1.7-2.3c-0.1-0.1-0.1-0.2-0.2-0.2c-0.6-0.9-1.2-1.7-1.8-2.6
	c-0.7-1-1.4-2.1-2.1-3.1c-0.2-0.3-0.4-0.6-0.6-0.9c-0.5-0.8-1-1.5-1.5-2.3c0.6,0.8,1.1,1.5,1.6,2.3
	C527.8,365.4,529.8,368.4,531.8,371.5z"/>
<path class="st0" d="M645.9,437.2c-14.8,9.5-32.2,15.1-50.9,15.7c-1,0-2.1,0.1-3.1,0.1h-0.3c-0.3,0-0.6,0-0.9,0
	c-6.8-0.1-13.4-0.8-19.9-2.2c-0.1,0-0.3,0-0.4-0.1c-0.1,0-0.3-0.1-0.4-0.1c-0.2,0-0.4-0.1-0.6-0.1c-0.9-0.2-1.9-0.4-2.8-0.7
	c-9.6-2.5-18.7-6.4-26.9-11.4c-0.9-0.5-1.8-1.1-2.6-1.6l0,0c-2.2-1.4-4.3-3-6.4-4.6c0,0-0.1-0.1-0.1-0.1c0,0,0,0,0,0
	c-0.3-0.2-0.6-0.5-0.9-0.7c-0.3-0.2-0.6-0.5-0.9-0.7c-0.4-0.3-0.7-0.6-1.1-0.9c0,0-0.1-0.1-0.1-0.1l0,0c-0.7-0.6-1.4-1.2-2.1-1.8
	c-15.3-13.5-26.4-31.5-31.3-52c-0.2-0.6-0.3-1.2-0.4-1.8c-0.1-0.6-0.3-1.3-0.4-1.9c-0.7-3.5-1.2-7-1.5-10.6c0.3-2.3,0.4-4.6,0.4-7
	c0-2.9-0.2-5.8-0.5-8.6c-2-15.5-9.3-29.4-20-39.7c8.1,6.3,15.9,13.1,23.2,20.3c10.6,10.4,20.4,21.7,29.2,33.7c0,0,0,0,0,0
	c0.5,0.8,1,1.5,1.5,2.3c0.2,0.3,0.4,0.6,0.6,0.9c0.7,1,1.4,2.1,2.1,3.1c0.6,0.9,1.2,1.7,1.8,2.6c0.1,0.1,0.1,0.2,0.2,0.2
	c0.6,0.8,1.1,1.5,1.7,2.3c0,0,0,0,0,0c16.4,21.7,37.8,39.3,62.7,50.9c0,0,0,0,0,0c1.2,0.5,2.4,1.1,3.6,1.6
	C613,430.7,629.1,435.2,645.9,437.2z"/>
<path class="st0" d="M491.6,345.8"/>
<path class="st0" d="M491.7,361.4"/>
<path class="st0" d="M726.5,410c-11.9,4.9-24.9,7.7-38.5,7.7c-1.2,0-2.3,0-3.5-0.1c-0.8,0-1.5-0.1-2.3-0.1c-0.6,0-1.1-0.1-1.7-0.1
	c-0.5,0-1.1-0.1-1.7-0.1h0c-0.6,0-1.2-0.1-1.7-0.2c-1.3-0.1-2.6-0.3-3.9-0.5c-0.4,0-0.8-0.1-1.2-0.2c-0.3,0-0.6-0.1-1-0.2
	c-0.4-0.1-0.8-0.1-1.2-0.2c0,0-0.1,0-0.1,0c-0.1,0-0.2,0-0.3,0c-0.7-0.1-1.4-0.3-2.1-0.4c-0.3,0-0.5-0.1-0.8-0.2
	c-0.5-0.1-1-0.2-1.6-0.4c-0.5-0.1-1-0.2-1.4-0.3c-1.5-0.4-3-0.8-4.5-1.2c-0.5-0.1-1-0.3-1.5-0.5c-0.7-0.2-1.3-0.4-2-0.6
	c-0.5-0.1-0.9-0.3-1.4-0.5c-0.4-0.2-0.9-0.3-1.3-0.5c-1.5-0.6-3-1.2-4.5-1.8c-15.3-6.5-28.5-16.7-38.8-29.5
	c-1.9-2.3-3.6-4.7-5.3-7.2c-1.1-1.7-2.2-3.3-3.2-5.1c-1.2-1.5-2.3-2.9-3.5-4.4c-0.6-0.7-1.2-1.5-1.8-2.2c-0.2-0.2-0.4-0.5-0.6-0.7
	c-0.8-1-1.6-1.9-2.5-2.9c-0.1-0.1-0.1-0.1-0.2-0.2c-0.6-0.8-1.3-1.5-2-2.3c-0.4-0.5-0.9-1-1.3-1.5c-1.7-1.8-3.3-3.6-5-5.4
	c-0.6-0.6-1.2-1.3-1.9-1.9c-0.7-0.7-1.4-1.4-2.1-2.1c-0.8-0.8-1.7-1.7-2.5-2.5c-0.1-0.1-0.3-0.3-0.4-0.4c-0.9-0.8-1.8-1.7-2.6-2.5
	c-1.2-1.1-2.4-2.3-3.7-3.4c-1.1-1-2.2-2-3.3-2.9c0,0-0.1,0-0.1-0.1c-1.1-1-2.2-1.9-3.3-2.8c-0.8-0.7-1.6-1.4-2.4-2
	c-0.5-0.4-1-0.8-1.5-1.2c-1-0.8-2-1.6-3-2.4c-1.1-0.9-2.2-1.8-3.4-2.6c0,0-0.1-0.1-0.1-0.1c-1.2-0.9-2.3-1.8-3.5-2.7
	c-1.1-0.8-2.3-1.7-3.4-2.5c-0.2-0.1-0.3-0.2-0.5-0.4c-0.8-0.6-1.6-1.1-2.4-1.7c-0.6-0.4-1.2-0.8-1.8-1.2c-0.3-0.2-0.6-0.4-0.8-0.6
	c-0.8-0.6-1.6-1.1-2.5-1.7c-1.2-0.8-2.4-1.6-3.6-2.4c-1.1-0.7-2.2-1.4-3.3-2.1c-0.2-0.1-0.5-0.3-0.7-0.4c-0.9-0.5-1.7-1.1-2.6-1.6
	c-0.5-0.3-0.9-0.6-1.4-0.8c-0.8-0.5-1.6-0.9-2.3-1.4c-0.9-0.5-1.8-1.1-2.8-1.6c-1.5-0.8-2.9-1.6-4.4-2.4c-1.5-0.8-3-1.6-4.5-2.4
	c-1.1-0.6-2.2-1.1-3.3-1.7c-0.8-0.4-1.6-0.8-2.4-1.2c-1.4-0.7-2.8-1.4-4.3-2c-0.7-0.4-1.5-0.7-2.2-1c-0.7-0.3-1.3-0.6-2-0.9
	c0,0,0,0-0.1,0c-2.5-1.1-5-2.2-7.5-3.2c-1.2-0.5-2.4-1-3.6-1.5c-9.8-3.8-19.8-7.1-30.1-9.7c-13.2-3.4-26.7-5.8-40.6-7.2
	c-6-0.6-12.1-1-18.2-1.2c-0.4-0.1-0.8-0.3-1.2-0.4c6.7-3.8,13.7-7.2,21-10.1v0c9.7-3.9,19.8-6.9,30.3-8.9c10.3-2,20.9-3,31.7-3
	c0.8,0,1.6,0,2.4,0c0.5,0,1,0,1.5,0c2.4,0,4.8,0.2,7.2,0.3c0.8,0,1.6,0.1,2.5,0.2c0.7,0,1.3,0.1,2,0.2c0.4,0,0.8,0.1,1.2,0.1
	c0.8,0.1,1.7,0.2,2.5,0.3c0.8,0.1,1.5,0.2,2.3,0.3c1.2,0.1,2.3,0.3,3.5,0.5c1.1,0.2,2.1,0.3,3.2,0.5c0.2,0,0.5,0.1,0.7,0.1
	c1.8,0.3,3.5,0.6,5.3,1c0.9,0.2,1.7,0.4,2.6,0.6c0.2,0,0.4,0.1,0.6,0.1c1,0.2,2,0.5,3,0.7c1,0.2,2,0.5,2.9,0.8c0.1,0,0.1,0,0.2,0.1
	c1,0.3,2,0.5,3,0.8c0.9,0.3,1.8,0.5,2.7,0.8c0.2,0,0.3,0.1,0.5,0.1c0.8,0.3,1.6,0.5,2.4,0.8c0.2,0.1,0.5,0.1,0.7,0.2
	c0.7,0.2,1.4,0.4,2,0.7c0.4,0.1,0.8,0.3,1.3,0.4c0.6,0.2,1.2,0.5,1.9,0.7c0.3,0.1,0.5,0.2,0.8,0.3c0.8,0.3,1.5,0.6,2.3,0.9
	c0.3,0.1,0.5,0.2,0.8,0.3c0.6,0.2,1.3,0.5,1.9,0.8c0.5,0.2,0.9,0.4,1.3,0.6c0.4,0.2,0.8,0.3,1.3,0.5c0.9,0.4,1.7,0.7,2.5,1.1
	c0.8,0.4,1.6,0.7,2.4,1.1c0.2,0.1,0.4,0.2,0.6,0.3h0c0.5,0.2,1,0.5,1.5,0.7c0.8,0.4,1.5,0.8,2.3,1.1c0.8,0.4,1.5,0.8,2.2,1.1
	c0.5,0.3,1.1,0.6,1.6,0.9c0.2,0.1,0.5,0.3,0.7,0.4c0.5,0.3,1,0.5,1.5,0.8c0.7,0.4,1.4,0.8,2.1,1.2c0.9,0.5,1.8,1,2.7,1.6
	c0.7,0.4,1.5,0.9,2.2,1.4c1.1,0.7,2.2,1.4,3.3,2.1c0.6,0.4,1.2,0.8,1.8,1.2c1.5,1,2.9,2,4.3,3c0.6,0.4,1.2,0.9,1.8,1.3
	c0.8,0.6,1.6,1.2,2.3,1.8c0.8,0.6,1.6,1.2,2.3,1.8c2.3,1.8,4.6,3.7,6.8,5.7c0.1,0.1,0.2,0.1,0.3,0.2c0.2,0.2,0.4,0.3,0.5,0.5
	c15.2,13.7,27.9,30.2,37.3,48.6c0,0,0,0,0,0c1.5,2.9,2.9,5.9,4.2,8.9c0,0,0,0,0,0c0.9,2.4,1.8,4.7,2.8,6.9c0.3,0.7,0.6,1.3,0.9,2
	c0.2,0.4,0.3,0.7,0.5,1.1c0.2,0.5,0.5,1,0.7,1.4c0.5,0.9,0.9,1.8,1.4,2.7c0.3,0.5,0.6,1.1,0.9,1.6c0.1,0.1,0.2,0.3,0.2,0.4
	c0.3,0.5,0.6,1,0.9,1.6c0,0.1,0.1,0.2,0.2,0.3c0.3,0.5,0.5,0.9,0.8,1.3c0.8,1.3,1.7,2.5,2.5,3.8c0.5,0.7,1,1.4,1.5,2.1c0,0,0,0,0,0
	c0.4,0.6,0.8,1.1,1.3,1.7c0.2,0.3,0.5,0.6,0.7,0.9c1.3,1.7,2.7,3.3,4.2,5c0.3,0.3,0.6,0.6,0.9,1c0.5,0.5,0.9,1,1.4,1.5
	c0.6,0.6,1.2,1.3,1.8,1.9c0.5,0.5,1,1,1.6,1.5c0.3,0.3,0.6,0.5,0.9,0.8c0.3,0.3,0.7,0.6,1,0.9c0.2,0.2,0.4,0.4,0.6,0.5
	c0.4,0.4,0.8,0.7,1.2,1c1.4,1.2,2.8,2.3,4.3,3.4c0.3,0.2,0.6,0.5,0.9,0.7c0.3,0.2,0.6,0.5,0.9,0.7c0.4,0.3,0.8,0.6,1.2,0.8
	c1.1,0.8,2.3,1.6,3.4,2.3c0.6,0.4,1.1,0.7,1.7,1.1c0.5,0.3,1.1,0.7,1.7,1c1.2,0.7,2.4,1.4,3.7,2.1c0.7,0.4,1.4,0.7,2.1,1.1
	c0.6,0.3,1.2,0.6,1.8,0.9c0.2,0.1,0.3,0.2,0.5,0.2c0.6,0.3,1.2,0.6,1.8,0.9c0.5,0.3,1.1,0.5,1.6,0.7c0.6,0.3,1.3,0.5,1.9,0.8
	c0.1,0.1,0.2,0.1,0.3,0.1c0.7,0.3,1.5,0.6,2.2,0.9c0.1,0,0.2,0.1,0.3,0.1c0.8,0.3,1.6,0.6,2.5,0.9c0.9,0.3,1.7,0.6,2.6,0.8
	C707.7,408.2,716.9,409.8,726.5,410z"/>
<path class="st0" d="M454.4,364.3L454.4,364.3c-1.1-4.1-2.4-8-3.9-11.9c-2.6-6.6-6-12.9-9.9-18.8c-0.3-0.5-0.6-0.9-0.9-1.4
	c-11-15.9-26.6-28.5-44.8-35.9c-4.8-2-9.8-3.5-14.9-4.7c-7.4-1.7-15.1-2.7-23-2.7c-6.5,0-12.8,0.6-18.9,1.8
	c-7.7-8.3-15-17.2-21.6-26.5c-27.8-38.8-45.5-85.2-49.2-135.5c-30.8,43.6-48.8,96.9-48.8,154.3c0,8.3,0.4,16.6,1.1,24.8
	c4.8,52.9,25.1,101.4,56.2,140.9l0,0c2.4,3.1,4.9,6.1,7.4,9c0,0,0,0,0,0c18.4,19.8,44.6,32.3,73.8,32.3c0.8,0,1.6,0,2.4,0
	c0.8,0,1.6,0,2.4-0.1c7.6-0.4,15-1.6,22.1-3.5c3.8-1,7.5-2.3,11.1-3.8c30.6-12.5,53.7-39.6,60.5-72.7c1.4-6.6,2.1-13.5,2.1-20.5
	C457.6,380.8,456.5,372.4,454.4,364.3z M424.1,389.7c0,0.4,0,0.8,0,1.2c0,0.3,0,0.5,0,0.8c0,0.5,0,1-0.1,1.5c0,0.1,0,0.2,0,0.3
	c0,0.4,0,0.7-0.1,1.1c0,0.7-0.1,1.3-0.2,2c0,0.5-0.1,0.9-0.1,1.3c-0.1,0.5-0.1,1-0.2,1.5c0,0.4-0.1,0.7-0.2,1.1
	c-0.1,0.3-0.1,0.7-0.2,1c-0.1,0.4-0.1,0.7-0.2,1.1c0,0.3-0.1,0.6-0.2,0.9c-0.3,1.4-0.6,2.7-1,4.1c-0.1,0.5-0.3,1-0.5,1.5
	c-0.2,0.5-0.3,1-0.5,1.5c-0.1,0.2-0.2,0.5-0.2,0.7c-0.2,0.5-0.4,1-0.6,1.6c-0.2,0.7-0.5,1.3-0.8,2c-0.2,0.5-0.4,1-0.7,1.6
	c-0.1,0.3-0.2,0.5-0.4,0.8c-0.8,1.8-1.7,3.6-2.7,5.4c-0.3,0.5-0.5,0.9-0.8,1.4c-0.1,0.2-0.3,0.4-0.4,0.7c-0.1,0.2-0.3,0.4-0.4,0.7
	c-0.2,0.3-0.3,0.5-0.5,0.8c-0.4,0.6-0.8,1.2-1.2,1.8c-0.3,0.4-0.5,0.7-0.8,1.1c-0.3,0.4-0.5,0.7-0.8,1.1s-0.5,0.7-0.8,1
	c-0.5,0.7-1.1,1.4-1.7,2c-0.2,0.2-0.3,0.4-0.5,0.6c-0.7,0.8-1.5,1.6-2.2,2.4c-0.3,0.3-0.6,0.6-0.9,0.9c-0.5,0.5-1,0.9-1.4,1.4
	c-0.5,0.5-1,0.9-1.5,1.3c-0.3,0.3-0.7,0.6-1,0.9c-0.2,0.2-0.5,0.4-0.7,0.6s-0.5,0.4-0.7,0.6c-0.1,0.1-0.2,0.1-0.3,0.2
	c-0.5,0.4-1,0.8-1.5,1.1c-0.4,0.3-0.7,0.5-1.1,0.8c-0.4,0.3-0.7,0.5-1.1,0.8c-0.1,0.1-0.2,0.2-0.3,0.2v0c-0.3,0.2-0.6,0.4-0.9,0.6
	c-0.5,0.3-1,0.6-1.4,0.9c-0.4,0.2-0.7,0.5-1.1,0.7c-0.2,0.1-0.5,0.3-0.7,0.4c-0.2,0.1-0.5,0.3-0.7,0.4c-0.7,0.4-1.3,0.7-2,1.1
	c-0.3,0.2-0.6,0.3-0.8,0.4c-0.5,0.2-0.9,0.5-1.4,0.7c-0.5,0.2-0.9,0.4-1.4,0.7c-0.4,0.2-0.9,0.4-1.3,0.5c-0.4,0.2-0.9,0.4-1.3,0.5
	c-0.3,0.1-0.5,0.2-0.7,0.3c-1.3,0.5-2.6,0.9-3.9,1.3c-0.4,0.1-0.8,0.3-1.2,0.4c0,0-0.1,0-0.1,0c0,0,0,0,0,0c-0.3,0.1-0.7,0.2-1,0.3
	c-0.5,0.2-1.1,0.3-1.6,0.4c0,0-0.1,0-0.1,0c-0.7,0.2-1.3,0.3-2,0.5c-0.5,0.1-1,0.2-1.5,0.3c-0.3,0.1-0.6,0.1-0.9,0.1
	c-0.4,0.1-0.7,0.1-1.1,0.2c-0.3,0-0.6,0.1-1,0.1c-0.1,0-0.3,0-0.4,0.1c-0.2,0-0.5,0.1-0.7,0.1c-0.4,0.1-0.8,0.1-1.2,0.1
	c-0.1,0-0.2,0-0.3,0c-0.5,0.1-1.1,0.1-1.6,0.1c-0.4,0-0.7,0.1-1.1,0.1c-0.4,0-0.8,0-1.3,0.1c-0.4,0-0.8,0-1.3,0c-0.6,0-1.2,0-1.9,0
	c-37,0-67-30-67-67c0-37,30-67,67-67c0.7,0,1.5,0,2.2,0c0.3,0,0.5,0,0.8,0c0.6,0,1.2,0.1,1.7,0.1c0.6,0,1.2,0.1,1.8,0.1
	c0.4,0,0.8,0.1,1.1,0.1c0.3,0,0.7,0.1,1,0.1c0.5,0.1,1,0.1,1.5,0.2c0.2,0,0.3,0,0.5,0.1c0.4,0.1,0.8,0.1,1.2,0.2c0,0,0.1,0,0.1,0
	c0.4,0.1,0.8,0.1,1.1,0.2c0.8,0.2,1.7,0.3,2.5,0.5c0.5,0.1,1,0.2,1.5,0.4c0.6,0.2,1.2,0.3,1.8,0.5c0.6,0.2,1.2,0.4,1.7,0.5
	c0.5,0.2,1,0.3,1.6,0.5c0.7,0.2,1.3,0.5,2,0.7c0.3,0.1,0.5,0.2,0.8,0.3c0.7,0.3,1.4,0.5,2,0.8c0.5,0.2,1.1,0.5,1.6,0.7
	c0.6,0.3,1.1,0.5,1.6,0.8c0.5,0.2,0.9,0.5,1.4,0.7c0.6,0.3,1.1,0.6,1.7,0.9c0.2,0.1,0.5,0.3,0.7,0.4c0.2,0.1,0.3,0.2,0.5,0.3
	c0.3,0.2,0.6,0.4,1,0.6c0.3,0.2,0.6,0.4,1,0.6c0.3,0.2,0.6,0.4,1,0.6c0.5,0.3,1,0.7,1.6,1.1c0.2,0.2,0.5,0.3,0.7,0.5
	c0.4,0.3,0.8,0.6,1.2,0.9c0.2,0.1,0.4,0.3,0.6,0.4c0,0,0.1,0,0.1,0.1c0.2,0.2,0.4,0.3,0.6,0.5c0,0,0,0,0,0c0.3,0.3,0.7,0.5,1,0.8
	c0.1,0,0.1,0.1,0.2,0.1c0.4,0.3,0.8,0.7,1.1,1c0.5,0.5,1,0.9,1.6,1.4c0.4,0.4,0.8,0.8,1.2,1.2c0.6,0.6,1.2,1.2,1.7,1.8
	c0.6,0.6,1.2,1.3,1.7,1.9c0.4,0.5,0.8,0.9,1.2,1.4c0.2,0.2,0.4,0.5,0.5,0.7c0.7,0.8,1.3,1.7,2,2.6c0.2,0.3,0.5,0.6,0.7,0.9
	c0.4,0.6,0.8,1.1,1.1,1.7c0.2,0.4,0.5,0.7,0.7,1.1c0.2,0.3,0.3,0.5,0.5,0.8c0.7,1.1,1.3,2.2,1.9,3.3c0.2,0.4,0.5,0.9,0.7,1.3
	c0.1,0.2,0.2,0.3,0.3,0.5c0,0,0,0.1,0,0.1c0,0,0,0.1,0,0.1c0,0.1,0.1,0.1,0.1,0.2c0.3,0.6,0.6,1.2,0.9,1.8c0.1,0.1,0.1,0.2,0.1,0.3
	c0.2,0.5,0.4,1,0.6,1.5c0.3,0.7,0.6,1.5,0.9,2.3c0.2,0.4,0.3,0.8,0.4,1.1c0.2,0.5,0.3,0.9,0.5,1.4c0.1,0.3,0.2,0.6,0.3,0.9
	c0.2,0.5,0.3,1,0.5,1.6c0.1,0.5,0.3,1,0.4,1.5c0,0.1,0.1,0.3,0.1,0.5c0.1,0.3,0.1,0.6,0.2,0.8c0.5,2,0.9,3.9,1.2,6
	c0.1,0.5,0.2,1.1,0.2,1.6c0.1,0.5,0.1,1,0.2,1.5c0,0.4,0.1,0.7,0.1,1.1c0,0.5,0.1,1,0.1,1.5c0,0,0,0.1,0,0.1c0,0.2,0,0.5,0,0.7
	c0,0.1,0,0.2,0,0.3c0,0.5,0,0.9,0,1.3c0,0.5,0,1.1,0,1.6V389.7z"/>
<path class="st0" d="M539.6,495.4c-3.8,0.7-7.7,1-11.7,1c-10.4,0-20.3-2.4-29.1-6.6c-0.4-0.2-0.8-0.4-1.1-0.5c0,0-0.1,0-0.1,0
	c-0.3-0.2-0.5-0.3-0.8-0.5c-0.1-0.1-0.2-0.1-0.3-0.2c-0.3-0.2-0.7-0.4-1-0.6c-0.2-0.1-0.3-0.2-0.5-0.4c-8.7-6-14.5-16.1-14.6-27.5
	c0.1-4.9,1.2-9.6,3.2-13.8c0.5-1,1-1.9,1.5-2.9c0.6-1.2,1.2-2.4,1.8-3.6c2.4-5.3,4.4-10.8,5.9-16.5c1.6,2.3,3.1,4.7,4.4,7.2
	c0.2,0.3,0.3,0.5,0.4,0.8l0.4,0.8c4.2,8.4,6.6,17.7,6.9,27.6v0.1c0,0.6-0.1,1.2-0.1,1.8c0,0.6,0,1.3,0.1,1.9c0,0,0,0,0,0
	c1,17.8,15.7,31.9,33.8,31.9C539,495.4,539.3,495.4,539.6,495.4z"/>
<path class="st0" d="M497.7,489.2c0.4,0.2,0.7,0.4,1.1,0.5c0,0,0,0,0,0c-0.1-0.1-0.3-0.1-0.4-0.2c-0.1-0.1-0.3-0.1-0.4-0.2
	C498,489.4,497.8,489.3,497.7,489.2z"/>
<path class="st0" d="M491.7,361.4"/>
<path class="st0" d="M491.6,345.8"/>
<path class="st0" d="M245.3,154.2"/>
<path class="st0" d="M498.5,489.6c-0.1-0.1-0.3-0.1-0.4-0.2c-0.1-0.1-0.2-0.1-0.3-0.2c0.4,0.2,0.7,0.4,1.1,0.5"/>
<path class="st0" d="M216.2,166.2C216.2,166.2,216.2,166.2,216.2,166.2c-1.8,1.5-4,2.4-6.5,2.4c-5.6,0-10-4.5-10-10s4.5-10,10-10
	c0,0,0.7,0.1,1.8,0.2c4.7,0.3,17.3,0.6,20.8-5.5C232.3,143.2,236,156,216.2,166.2z"/>
</svg>
