<svg xmlns="http://www.w3.org/2000/svg" height="644pt" version="1.1" viewBox="0 0 644.9429 644" width="644pt">
<g id="surface1">
<path d="M 176.433594 600.8125 C 176.433594 625.074219 156.765625 644.738281 132.507812 644.738281 C 108.246094 644.738281 88.578125 625.074219 88.578125 600.8125 C 88.578125 576.550781 108.246094 556.882812 132.507812 556.882812 C 156.765625 556.882812 176.433594 576.550781 176.433594 600.8125 Z M 176.433594 600.8125 " style=" stroke:none;fill-rule:nonzero;fill:rgb(100%,63.921569%,0%);fill-opacity:1;" />
<path d="M 123.929688 592.234375 C 132.015625 584.148438 145.128906 584.148438 153.214844 592.234375 L 170.367188 609.390625 C 178.457031 617.476562 178.457031 630.585938 170.367188 638.671875 C 162.28125 646.761719 149.171875 646.761719 141.082031 638.671875 L 123.929688 621.519531 C 115.839844 613.433594 115.839844 600.320312 123.929688 592.234375 Z M 123.929688 592.234375 " style=" stroke:none;fill-rule:nonzero;fill:rgb(97.647059%,54.509804%,0%);fill-opacity:1;" />
<path d="M 431.347656 214.117188 C 474.15625 256.925781 481.597656 323.679688 449.265625 374.867188 L 365.113281 507.203125 C 356.644531 520.523438 352.144531 535.984375 352.144531 551.769531 L 352.144531 586.171875 C 352.144531 618.519531 325.921875 644.742188 293.574219 644.742188 C 293.574219 644.742188 191.078125 659.382812 88.578125 556.886719 C -13.921875 454.390625 0.722656 351.886719 0.722656 351.886719 C 0.722656 319.539062 26.945312 293.316406 59.292969 293.316406 L 93.695312 293.316406 C 109.480469 293.316406 124.9375 288.820312 138.257812 280.347656 L 270.597656 196.195312 C 321.78125 163.863281 388.535156 171.304688 431.347656 214.117188 Z M 431.347656 214.117188 " style=" stroke:none;fill-rule:nonzero;fill:rgb(100%,74.509804%,0%);fill-opacity:1;" />
<path d="M 431.347656 214.117188 C 474.15625 256.925781 481.597656 323.679688 449.265625 374.867188 L 365.113281 507.203125 C 356.644531 520.523438 352.144531 535.984375 352.144531 551.769531 L 352.144531 586.171875 C 352.144531 618.519531 325.921875 644.742188 293.574219 644.742188 C 293.574219 644.742188 191.078125 659.382812 88.578125 556.886719 C -13.921875 454.390625 0.722656 351.886719 0.722656 351.886719 C 0.722656 319.539062 26.945312 293.316406 59.292969 293.316406 L 93.695312 293.316406 C 109.480469 293.316406 124.9375 288.820312 138.257812 280.347656 L 270.597656 196.195312 C 321.78125 163.863281 388.535156 171.304688 431.347656 214.117188 Z M 431.347656 214.117188 " style=" stroke:none;fill-rule:nonzero;fill:rgb(100%,74.509804%,0%);fill-opacity:1;" />
<path d="M 14.785156 344.714844 C 6.980469 344.722656 0.550781 350.847656 0.171875 358.644531 C -0.136719 365.667969 -0.0195312 372.707031 0.519531 379.714844 L 0.519531 379.722656 L 0.539062 379.953125 L 0.539062 379.957031 L 0.554688 380.191406 L 0.554688 380.195312 L 0.566406 380.347656 L 0.566406 380.378906 L 0.570312 380.421875 L 0.574219 380.441406 L 0.574219 380.484375 L 0.582031 380.546875 L 0.582031 380.566406 L 0.585938 380.628906 L 0.589844 380.652344 L 0.59375 380.691406 L 0.59375 380.726562 L 0.601562 380.792969 L 0.601562 380.8125 L 0.605469 380.867188 L 0.609375 380.894531 L 0.621094 381.039062 L 0.621094 381.058594 L 0.625 381.109375 L 0.628906 381.136719 L 0.632812 381.207031 L 0.632812 381.214844 L 0.636719 381.28125 L 0.640625 381.300781 L 0.644531 381.355469 L 0.644531 381.386719 L 0.652344 381.457031 L 0.652344 381.460938 C 3.210938 412.710938 14.605469 465.171875 57.371094 521.300781 C 62.300781 527.710938 71.496094 528.914062 77.90625 523.984375 C 84.296875 519.070312 85.511719 509.914062 80.625 503.503906 C 29.867188 436.859375 28.597656 376.871094 29.417969 360.074219 C 29.8125 351.996094 23.582031 345.128906 15.503906 344.734375 C 15.265625 344.722656 15.023438 344.714844 14.785156 344.714844 Z M 14.785156 344.714844 " style=" stroke:none;fill-rule:nonzero;fill:rgb(100%,98.823529%,45.490196%);fill-opacity:1;" />
<path d="M 229.269531 611.6875 C 194.046875 603.78125 176.433594 586.167969 176.433594 586.167969 L 176.433594 620.128906 C 242.480469 651.835938 293.574219 644.738281 293.574219 644.738281 C 325.921875 644.738281 352.144531 618.515625 352.144531 586.167969 L 352.144531 551.769531 C 352.144531 535.984375 356.644531 520.523438 365.113281 507.203125 L 449.265625 374.867188 C 456.183594 363.738281 461.363281 351.617188 464.625 338.925781 C 445.90625 381.570312 373.496094 469.027344 322.859375 469.027344 C 289.25 469.027344 232.910156 450.886719 210.367188 442.664062 C 193.210938 436.28125 173.90625 440.445312 160.90625 453.332031 C 140.042969 474.195312 143.277344 509.433594 168.121094 525.347656 C 185.199219 536.285156 224.976562 552.304688 240.011719 554.648438 C 254.050781 556.875 264.359375 569.011719 264.289062 583.222656 C 264.289062 601.605469 247.207031 615.714844 229.269531 611.6875 Z M 229.269531 611.6875 " style=" stroke:none;fill-rule:nonzero;fill:rgb(100%,63.921569%,0%);fill-opacity:1;" />
<path d="M 150.457031 574.128906 C 142.371094 574.121094 135.808594 580.671875 135.800781 588.761719 C 135.796875 593.699219 138.28125 598.304688 142.410156 601.015625 C 149.753906 605.835938 156.988281 610.164062 164.105469 613.992188 L 164.109375 613.992188 C 164.582031 614.25 165.058594 614.507812 165.53125 614.761719 L 165.542969 614.765625 C 165.605469 614.800781 165.667969 614.832031 165.730469 614.863281 L 165.757812 614.878906 C 165.816406 614.910156 165.875 614.941406 165.9375 614.972656 L 165.960938 614.988281 C 166.023438 615.019531 166.082031 615.050781 166.140625 615.085938 L 166.167969 615.097656 C 166.226562 615.128906 166.289062 615.160156 166.347656 615.191406 L 166.375 615.207031 C 166.433594 615.238281 166.492188 615.269531 166.554688 615.300781 L 166.578125 615.316406 C 166.632812 615.34375 166.691406 615.375 166.746094 615.40625 L 166.773438 615.417969 C 166.832031 615.449219 166.886719 615.480469 166.945312 615.507812 L 166.980469 615.527344 C 167.039062 615.558594 167.09375 615.585938 167.152344 615.617188 L 167.1875 615.636719 C 167.238281 615.664062 167.292969 615.691406 167.347656 615.722656 L 167.402344 615.75 L 167.558594 615.832031 L 167.605469 615.855469 L 167.761719 615.9375 L 167.816406 615.964844 C 167.867188 615.992188 167.917969 616.019531 167.972656 616.046875 L 168.023438 616.074219 L 168.15625 616.144531 L 168.230469 616.183594 C 168.273438 616.203125 168.316406 616.226562 168.355469 616.25 L 168.425781 616.28125 L 168.554688 616.351562 C 168.578125 616.363281 168.601562 616.375 168.625 616.386719 L 168.765625 616.460938 L 168.824219 616.492188 L 169.042969 616.601562 C 169.085938 616.625 169.128906 616.648438 169.171875 616.667969 L 169.246094 616.707031 L 169.371094 616.773438 L 169.460938 616.820312 C 169.492188 616.835938 169.523438 616.851562 169.558594 616.867188 C 169.59375 616.886719 169.628906 616.90625 169.664062 616.921875 C 169.695312 616.9375 169.726562 616.953125 169.757812 616.96875 C 169.796875 616.992188 169.835938 617.011719 169.878906 617.03125 L 169.957031 617.074219 C 170 617.09375 170.039062 617.117188 170.082031 617.136719 C 170.109375 617.148438 170.136719 617.164062 170.164062 617.179688 C 170.207031 617.203125 170.25 617.222656 170.296875 617.246094 L 170.371094 617.285156 L 170.488281 617.34375 L 170.578125 617.390625 C 170.621094 617.410156 170.667969 617.433594 170.710938 617.457031 L 170.785156 617.496094 L 170.882812 617.546875 L 170.941406 617.574219 L 171.09375 617.652344 L 171.140625 617.675781 C 171.195312 617.703125 171.253906 617.734375 171.304688 617.757812 L 171.347656 617.78125 C 171.402344 617.808594 171.464844 617.839844 171.519531 617.867188 L 171.554688 617.886719 C 171.621094 617.917969 171.675781 617.945312 171.738281 617.976562 L 171.761719 617.992188 C 172.007812 618.113281 172.261719 618.238281 172.507812 618.363281 L 172.511719 618.367188 L 172.714844 618.46875 L 172.734375 618.480469 C 172.800781 618.511719 172.867188 618.546875 172.9375 618.578125 L 172.941406 618.582031 C 173.007812 618.613281 173.078125 618.648438 173.144531 618.683594 L 173.160156 618.691406 C 180.386719 622.277344 187.445312 625.394531 194.285156 628.105469 C 201.808594 631.066406 210.3125 627.367188 213.273438 619.839844 C 216.234375 612.320312 212.539062 603.820312 205.015625 600.855469 C 188.71875 594.347656 173.128906 586.199219 158.480469 576.53125 C 156.097656 574.964844 153.308594 574.128906 150.457031 574.128906 Z M 150.457031 574.128906 " style=" stroke:none;fill-rule:nonzero;fill:rgb(100%,84.313725%,0%);fill-opacity:1;" />
<path d="M 396.074219 249.390625 C 404.644531 257.960938 417.996094 259.480469 428.277344 253.058594 L 614.023438 122.242188 C 644.882812 102.953125 654.265625 62.300781 634.976562 31.441406 C 632.332031 27.210938 629.21875 23.296875 625.691406 19.769531 C 599.960938 -5.960938 558.238281 -5.960938 532.507812 19.769531 C 528.980469 23.296875 525.867188 27.210938 523.222656 31.441406 L 392.40625 217.1875 C 385.980469 227.464844 387.5 240.820312 396.074219 249.390625 Z M 396.074219 249.390625 " style=" stroke:none;fill-rule:nonzero;fill:rgb(100%,84.313725%,0%);fill-opacity:1;" />
<path d="M 608.824219 58.546875 C 599.414062 58.53125 590.574219 63.046875 585.066406 70.675781 C 584.503906 71.4375 583.792969 72.082031 582.980469 72.574219 C 582.070312 73.140625 581.175781 73.734375 580.296875 74.355469 L 433.507812 177.734375 C 420.289062 187.050781 417.128906 205.324219 426.445312 218.542969 C 435.753906 231.742188 453.988281 234.917969 467.210938 225.636719 L 583.695312 143.601562 L 583.917969 143.441406 L 593.976562 136.359375 L 594.015625 136.328125 L 595.019531 135.625 L 595.09375 135.570312 L 595.1875 135.507812 L 595.234375 135.472656 L 595.308594 135.421875 L 595.394531 135.359375 L 595.488281 135.292969 C 595.617188 135.203125 595.738281 135.117188 595.863281 135.027344 L 596.195312 134.796875 L 596.292969 134.726562 L 596.328125 134.703125 C 596.421875 134.636719 596.511719 134.574219 596.605469 134.507812 L 596.609375 134.503906 C 596.800781 134.367188 596.992188 134.234375 597.183594 134.101562 L 597.183594 134.097656 C 597.554688 133.839844 597.917969 133.582031 598.28125 133.328125 L 598.351562 133.277344 C 598.699219 133.03125 599.046875 132.785156 599.386719 132.546875 L 599.441406 132.511719 C 599.601562 132.398438 599.765625 132.28125 599.925781 132.171875 L 599.96875 132.140625 C 600.121094 132.03125 600.273438 131.921875 600.425781 131.816406 L 600.53125 131.742188 L 600.613281 131.6875 C 600.738281 131.597656 600.863281 131.507812 600.988281 131.421875 L 601 131.414062 C 602.195312 130.570312 603.320312 129.78125 604.375 129.039062 L 604.414062 129.007812 C 605.007812 128.589844 605.578125 128.1875 606.125 127.800781 L 606.128906 127.800781 C 606.667969 127.421875 607.183594 127.058594 607.671875 126.714844 L 607.738281 126.667969 C 608.726562 125.972656 609.613281 125.347656 610.386719 124.804688 L 610.402344 124.792969 C 610.480469 124.734375 610.554688 124.683594 610.628906 124.632812 L 610.6875 124.589844 L 610.734375 124.554688 L 611.945312 123.703125 L 612.378906 123.402344 L 612.441406 123.355469 L 612.449219 123.351562 L 612.492188 123.320312 L 614.019531 122.246094 L 614.117188 122.183594 L 614.148438 122.164062 L 614.214844 122.121094 L 614.253906 122.097656 L 614.3125 122.058594 L 614.351562 122.035156 L 614.417969 121.996094 L 614.449219 121.972656 L 614.535156 121.917969 L 614.546875 121.910156 L 614.640625 121.851562 L 614.675781 121.828125 L 614.738281 121.789062 L 614.777344 121.765625 L 614.835938 121.726562 L 614.875 121.703125 L 614.9375 121.660156 L 614.96875 121.640625 L 615.050781 121.585938 L 615.066406 121.578125 L 615.195312 121.492188 L 615.257812 121.453125 L 615.296875 121.425781 L 615.351562 121.390625 L 615.394531 121.363281 L 615.449219 121.324219 L 615.488281 121.296875 L 615.558594 121.253906 L 615.582031 121.234375 L 615.675781 121.171875 L 615.707031 121.152344 L 615.773438 121.109375 L 615.867188 121.046875 L 615.90625 121.019531 L 615.964844 120.984375 L 616 120.957031 L 616.066406 120.914062 L 616.097656 120.894531 L 616.1875 120.832031 L 616.226562 120.808594 L 616.28125 120.769531 L 616.324219 120.742188 L 616.375 120.703125 L 616.417969 120.675781 L 616.46875 120.640625 L 616.511719 120.613281 L 616.574219 120.570312 L 616.605469 120.546875 C 616.632812 120.527344 616.664062 120.507812 616.695312 120.488281 L 616.730469 120.460938 L 616.789062 120.421875 L 616.828125 120.394531 L 616.882812 120.359375 L 616.921875 120.328125 L 616.972656 120.292969 L 617.015625 120.261719 L 617.109375 120.199219 L 617.195312 120.136719 L 617.230469 120.113281 L 617.289062 120.070312 L 617.328125 120.042969 L 617.382812 120.003906 L 617.421875 119.976562 L 617.476562 119.9375 L 617.515625 119.910156 L 617.574219 119.867188 L 617.605469 119.84375 C 617.636719 119.820312 617.664062 119.800781 617.695312 119.78125 L 617.730469 119.753906 L 617.785156 119.714844 L 617.828125 119.683594 L 617.878906 119.648438 L 617.917969 119.617188 L 617.96875 119.578125 L 618.011719 119.550781 L 618.066406 119.507812 L 618.101562 119.484375 L 618.191406 119.417969 L 618.214844 119.398438 L 618.28125 119.351562 L 618.316406 119.328125 L 618.371094 119.285156 L 618.410156 119.257812 L 618.464844 119.214844 L 618.5 119.191406 L 618.5625 119.144531 L 618.589844 119.121094 L 618.679688 119.054688 L 618.699219 119.039062 L 618.769531 118.988281 L 618.800781 118.960938 L 618.859375 118.917969 L 618.894531 118.894531 L 618.949219 118.851562 L 618.984375 118.824219 L 619.042969 118.78125 L 619.078125 118.757812 L 619.164062 118.691406 L 619.1875 118.671875 L 619.253906 118.621094 L 619.289062 118.597656 L 619.34375 118.554688 L 619.378906 118.527344 L 619.433594 118.484375 L 619.46875 118.457031 L 619.527344 118.414062 L 619.558594 118.390625 L 619.648438 118.320312 L 619.65625 118.316406 L 619.734375 118.253906 L 619.765625 118.230469 L 619.824219 118.179688 L 619.855469 118.15625 L 619.914062 118.113281 L 619.945312 118.085938 L 620.011719 118.035156 L 620.035156 118.015625 L 620.210938 117.878906 L 620.234375 117.859375 L 620.300781 117.804688 L 620.328125 117.785156 L 620.390625 117.734375 L 620.417969 117.710938 L 620.480469 117.660156 L 620.507812 117.640625 L 620.59375 117.570312 L 620.683594 117.5 L 620.707031 117.480469 L 620.769531 117.425781 L 620.800781 117.40625 L 620.859375 117.355469 L 620.886719 117.332031 L 620.953125 117.28125 L 620.976562 117.261719 C 621.035156 117.214844 621.09375 117.164062 621.148438 117.117188 L 621.171875 117.101562 L 621.238281 117.046875 L 621.265625 117.023438 L 621.324219 116.972656 L 621.351562 116.953125 L 621.417969 116.898438 L 621.4375 116.878906 L 621.523438 116.808594 L 621.527344 116.808594 L 621.613281 116.734375 L 621.632812 116.71875 L 621.699219 116.660156 L 621.722656 116.640625 L 621.785156 116.589844 L 621.8125 116.566406 L 621.875 116.511719 L 621.898438 116.492188 C 621.957031 116.445312 622.011719 116.394531 622.070312 116.34375 L 622.082031 116.335938 L 622.15625 116.269531 L 622.175781 116.253906 L 622.242188 116.195312 L 622.265625 116.179688 L 622.332031 116.121094 L 622.351562 116.101562 C 622.410156 116.054688 622.464844 116.003906 622.523438 115.953125 L 622.535156 115.945312 L 622.609375 115.878906 L 622.628906 115.863281 L 622.695312 115.804688 L 622.714844 115.785156 L 622.785156 115.726562 L 622.800781 115.710938 C 622.859375 115.660156 622.914062 115.609375 622.972656 115.558594 L 622.980469 115.554688 L 623.058594 115.484375 L 623.074219 115.46875 L 623.140625 115.410156 L 623.164062 115.390625 L 623.230469 115.332031 L 623.246094 115.316406 L 623.328125 115.246094 L 623.332031 115.242188 L 623.417969 115.164062 L 623.421875 115.160156 L 623.5 115.089844 L 623.519531 115.070312 L 623.585938 115.011719 L 623.605469 114.992188 L 623.671875 114.933594 L 623.6875 114.917969 L 623.769531 114.84375 L 623.769531 114.839844 C 623.828125 114.789062 623.882812 114.738281 623.941406 114.683594 L 623.957031 114.671875 L 624.023438 114.605469 L 624.042969 114.589844 L 624.109375 114.527344 L 624.125 114.511719 L 624.207031 114.4375 L 624.375 114.277344 L 624.390625 114.265625 L 624.457031 114.203125 L 624.476562 114.183594 L 624.542969 114.121094 L 624.558594 114.105469 L 624.636719 114.03125 L 624.640625 114.03125 C 624.695312 113.976562 624.75 113.925781 624.804688 113.871094 L 624.820312 113.859375 L 624.886719 113.792969 L 624.90625 113.777344 L 624.984375 113.699219 L 625.066406 113.625 L 625.066406 113.621094 C 625.121094 113.566406 625.175781 113.515625 625.234375 113.460938 L 625.410156 113.285156 L 625.488281 113.210938 L 625.65625 113.046875 L 625.660156 113.039062 L 625.734375 112.96875 L 625.746094 112.953125 L 625.816406 112.886719 L 625.828125 112.871094 L 625.90625 112.796875 L 625.910156 112.792969 C 625.964844 112.738281 626.015625 112.683594 626.074219 112.628906 L 626.078125 112.621094 L 626.320312 112.378906 L 626.324219 112.371094 L 626.492188 112.203125 L 626.566406 112.125 L 626.578125 112.113281 L 626.644531 112.042969 L 626.65625 112.027344 L 626.734375 111.949219 L 626.894531 111.78125 L 626.898438 111.777344 L 626.972656 111.699219 L 626.984375 111.6875 L 627.050781 111.617188 L 627.0625 111.605469 L 627.136719 111.527344 L 627.140625 111.523438 C 627.21875 111.4375 627.296875 111.355469 627.375 111.269531 L 627.382812 111.261719 L 627.453125 111.1875 L 627.464844 111.175781 L 627.539062 111.097656 C 627.617188 111.011719 627.699219 110.925781 627.773438 110.839844 L 627.78125 110.832031 L 627.851562 110.757812 L 627.863281 110.746094 L 627.933594 110.667969 L 627.9375 110.664062 C 628.015625 110.578125 628.089844 110.492188 628.167969 110.40625 L 628.175781 110.398438 L 628.246094 110.324219 L 628.253906 110.3125 L 628.324219 110.234375 L 628.328125 110.230469 C 628.40625 110.144531 628.484375 110.058594 628.558594 109.972656 L 628.566406 109.960938 L 628.632812 109.886719 L 628.640625 109.875 L 628.710938 109.796875 L 628.714844 109.789062 C 628.792969 109.703125 628.867188 109.617188 628.941406 109.53125 L 628.949219 109.527344 L 629.015625 109.445312 L 629.027344 109.4375 L 629.09375 109.355469 L 629.101562 109.351562 C 629.175781 109.261719 629.25 109.175781 629.324219 109.085938 L 629.328125 109.085938 L 629.398438 109.003906 L 629.40625 108.996094 L 629.476562 108.910156 L 629.480469 108.910156 C 629.578125 108.792969 629.675781 108.671875 629.773438 108.554688 L 629.78125 108.546875 L 629.851562 108.464844 L 629.855469 108.460938 C 629.953125 108.34375 630.046875 108.226562 630.148438 108.105469 L 630.152344 108.101562 C 630.394531 107.800781 630.636719 107.503906 630.875 107.199219 C 631.453125 106.46875 632.015625 105.726562 632.558594 104.976562 C 642.019531 91.855469 639.058594 73.550781 625.941406 64.085938 C 620.949219 60.488281 614.964844 58.550781 608.824219 58.546875 Z M 608.824219 58.546875 " style=" stroke:none;fill-rule:nonzero;fill:rgb(100%,74.509804%,0%);fill-opacity:1;" />
<path d="M 586.425781 59.039062 C 586.425781 75.210938 573.3125 88.324219 557.140625 88.324219 C 540.964844 88.324219 527.855469 75.210938 527.855469 59.039062 C 527.855469 42.863281 540.964844 29.75 557.140625 29.75 C 573.3125 29.75 586.425781 42.863281 586.425781 59.039062 Z M 586.425781 59.039062 " style=" stroke:none;fill-rule:nonzero;fill:rgb(100%,98.823529%,45.490196%);fill-opacity:1;" />
<path d="M 166.132812 293.316406 L 281.128906 215.042969 C 298.523438 201.128906 323.59375 202.515625 339.34375 218.265625 C 356.414062 235.335938 356.414062 263.011719 339.34375 280.082031 L 233.496094 368.582031 C 201.632812 400.449219 147.148438 377.878906 147.148438 332.816406 C 147.148438 317.449219 154.132812 302.917969 166.132812 293.316406 Z M 166.132812 293.316406 " style=" stroke:none;fill-rule:nonzero;fill:rgb(100%,91.764706%,12.941176%);fill-opacity:1;" />
<path d="M 322.859375 264.03125 C 322.859375 280.207031 309.746094 293.316406 293.574219 293.316406 C 277.402344 293.316406 264.289062 280.207031 264.289062 264.03125 C 264.289062 247.859375 277.402344 234.746094 293.574219 234.746094 C 309.746094 234.746094 322.859375 247.859375 322.859375 264.03125 Z M 322.859375 264.03125 " style=" stroke:none;fill-rule:nonzero;fill:rgb(100%,98.823529%,45.490196%);fill-opacity:1;" />
</g>
</svg>