<?xml version="1.0" encoding="UTF-8" standalone="no"?>
<!-- Created with Inkscape (http://www.inkscape.org/) -->

<svg
   xmlns:dc="http://purl.org/dc/elements/1.1/"
   xmlns:cc="http://creativecommons.org/ns#"
   xmlns:rdf="http://www.w3.org/1999/02/22-rdf-syntax-ns#"
   xmlns:svg="http://www.w3.org/2000/svg"
   xmlns="http://www.w3.org/2000/svg"
   xmlns:sodipodi="http://sodipodi.sourceforge.net/DTD/sodipodi-0.dtd"
   xmlns:inkscape="http://www.inkscape.org/namespaces/inkscape"
   width="210mm"
   height="297mm"
   viewBox="0 0 210 297"
   version="1.1"
   id="svg6616"
   inkscape:version="0.92.3 (2405546, 2018-03-11)"
   sodipodi:docname="gps_earth.svg">
  <defs
     id="defs6610" />
  <sodipodi:namedview
     id="base"
     pagecolor="#ffffff"
     bordercolor="#666666"
     borderopacity="1.0"
     inkscape:pageopacity="0.0"
     inkscape:pageshadow="2"
     inkscape:zoom="0.35"
     inkscape:cx="400"
     inkscape:cy="560"
     inkscape:document-units="mm"
     inkscape:current-layer="layer1"
     showgrid="false"
     inkscape:window-width="1366"
     inkscape:window-height="705"
     inkscape:window-x="-8"
     inkscape:window-y="-8"
     inkscape:window-maximized="1" />
  <metadata
     id="metadata6613">
    <rdf:RDF>
      <cc:Work
         rdf:about="">
        <dc:format>image/svg+xml</dc:format>
        <dc:type
           rdf:resource="http://purl.org/dc/dcmitype/StillImage" />
        <dc:title></dc:title>
      </cc:Work>
    </rdf:RDF>
  </metadata>
  <g
     inkscape:label="Layer 1"
     inkscape:groupmode="layer"
     id="layer1">
    <path
       inkscape:connector-curvature="0"
       style="color:#000000;font-style:normal;font-variant:normal;font-weight:normal;font-stretch:normal;font-size:medium;line-height:normal;font-family:sans-serif;font-variant-ligatures:normal;font-variant-position:normal;font-variant-caps:normal;font-variant-numeric:normal;font-variant-alternates:normal;font-feature-settings:normal;text-indent:0;text-align:start;text-decoration:none;text-decoration-line:none;text-decoration-style:solid;text-decoration-color:#000000;letter-spacing:normal;word-spacing:normal;text-transform:none;writing-mode:lr-tb;direction:ltr;text-orientation:mixed;dominant-baseline:auto;baseline-shift:baseline;text-anchor:start;white-space:normal;shape-padding:0;clip-rule:nonzero;display:inline;overflow:visible;visibility:visible;opacity:1;isolation:auto;mix-blend-mode:normal;color-interpolation:sRGB;color-interpolation-filters:linearRGB;solid-color:#000000;solid-opacity:1;vector-effect:none;fill:none;fill-opacity:1;fill-rule:nonzero;stroke:#c70000;stroke-width:1.32291663;stroke-linecap:butt;stroke-linejoin:miter;stroke-miterlimit:4;stroke-dasharray:none;stroke-dashoffset:0;stroke-opacity:1;color-rendering:auto;image-rendering:auto;shape-rendering:auto;text-rendering:auto;enable-background:accumulate"
       d="m 62.098521,112.79627 c -1.95348,1.2e-4 -3.537148,1.56712 -3.537316,3.50013 9.51e-4,0.64351 0.181421,1.27426 0.5212,1.82296 l 0.007,0.053 3.0651,7.87697 3.069357,-8.04457 0.02115,-0.0569 c 0.299103,-0.52395 0.390316,-1.04966 0.391103,-1.65142 0,-1.93317 -1.584002,-3.50019 -3.537634,-3.50013 z m 1.47659,13.32503 -6.909132,0.27895 -8.713087,3.55835 0.03014,0.0745 -2.898459,2.37332 -2.581263,2.65409 -1.396308,2.09552 -8.24e-4,0.001 c 0,0 -1.532889,2.65013 -3.06608,5.92855 l 0.07553,0.0359 c 1.531471,-3.2747 3.063631,-5.92233 3.063631,-5.92233 l -0.0019,0.002 1.390905,-2.08814 2.573066,-2.64474 3.062809,-2.5078 -0.0082,-0.0102 8.487969,-3.46651 6.882423,-0.2783 5.300802,1.33606 -0.125507,0.31454 0.03342,0.0174 c 0.942151,0.48895 1.519282,0.6995 1.86344,0.78782 0.172083,0.0442 0.286055,0.0577 0.358505,0.06 0.03621,0.001 0.0624,-2.6e-4 0.07995,-0.002 0.01753,-0.002 0.02901,-0.006 0.02901,-0.006 l 0.02426,-0.008 0.08044,-0.48149 -1.398924,-0.34964 v -0.0938 l 3.421461,0.86244 5.096489,3.97867 -0.533163,-0.15251 -2.743304,-1.68964 -0.726991,0.94576 -0.211203,2.11241 0.564137,1.6934 1.074998,0.86081 0.549382,-0.27452 0.67997,0.95264 0.688652,0.45935 0.291646,-1.9699 -0.774669,-0.70469 -0.466963,-1.46086 1.506571,2.20031 0.610007,1.96728 -1.662725,0.19958 -0.564128,-1.05858 -0.563472,0.3229 0.696683,1.04563 -0.808264,0.47165 -0.626063,1.18453 -1.538855,0.80636 0.09421,0.0316 v 6.3e-4 c 0.0054,0.004 0.01604,0.0123 0.03277,0.0285 0.03351,0.0325 0.09082,0.0966 0.181381,0.21746 0.168903,0.22541 0.460305,0.6641 0.921145,1.45463 l -0.446154,0.24369 0.04031,0.0738 0.44845,-0.24501 c 0.01883,0.0325 0.03318,0.0557 0.05259,0.0894 l 0.07242,-0.0421 c -0.01899,-0.0329 -0.03301,-0.0556 -0.05145,-0.0874 l 0.243968,-0.13316 -0.04031,-0.0738 -0.246258,0.13447 c -0.462553,-0.7937 -0.754912,-1.23469 -0.927211,-1.46463 -0.09229,-0.12315 -0.152413,-0.19028 -0.190724,-0.22746 -9.51e-4,-9.6e-4 -9.51e-4,-9.6e-4 -0.0019,-0.002 l 1.417448,-0.74322 0.627372,-1.18568 0.863808,-0.50461 -0.696026,-1.04497 0.411093,-0.2355 0.550041,1.03317 1.820021,-0.21877 -0.644082,-2.07584 -1.675183,-2.44516 -0.07423,0.0366 0.560361,1.75343 0.757962,0.68992 -0.264939,1.79443 -0.5661,-0.37751 -0.712739,-0.99856 -0.565434,0.28272 -1.013729,-0.8121 -0.550526,-1.65306 0.206939,-2.0701 0.665718,-0.8672 2.689397,1.65617 0.74403,0.2132 0.276081,0.21549 0.420273,1.08187 0.07865,-0.0303 -0.36932,-0.95035 1.273595,0.9943 4.520557,7.02994 1.529031,5.00889 0.417318,8.63036 -2.15558,5.35901 0.07733,0.0315 2.16312,-5.37622 -0.418627,-8.65891 -1.535751,-5.03052 -4.534323,-7.05176 -1.396476,-1.09024 -0.06619,-0.17039 -0.240205,-0.0687 -5.275079,-4.11823 -3.459147,-0.87162 v -0.174 l -0.905426,-0.0756 -0.0077,0.0194 z m -0.312617,0.17137 c -0.25505,-0.005 -0.550031,0.012 -0.844806,0.0382 -0.783555,0.0697 -1.561134,0.20789 -1.566049,0.20877 h -1.747607 l -0.983902,0.42212 -1.114161,0.55791 -0.974735,0.41769 -1.188387,0.55971 -0.780244,0.56775 -0.362262,1.01595 0.847742,0.69484 0.215631,-1.7262 0.05505,-0.0279 c -1.7e-5,0.0379 10e-4,0.0839 0.01245,0.17104 0.02651,0.20342 0.09677,0.57076 0.271174,1.23406 0.171706,0.6531 0.03407,1.0187 -0.139929,1.22602 -0.173996,0.20732 -0.386514,0.256 -0.386514,0.256 l 0.01,0.083 h 0.539388 l 0.720766,0.72092 -0.910341,0.71583 -0.809899,-0.73699 v 0.65828 l 0.258717,0.90869 -1.021756,-0.29191 0.454516,0.60678 -0.210547,0.0526 -0.879369,-0.0676 -0.629662,-0.84048 -0.73699,0.0738 -0.480564,0.54971 c -0.121918,-0.0378 -0.221151,-0.0668 -0.286736,-0.0836 -0.03585,-0.009 -0.0643,-0.0158 -0.08668,-0.0198 -0.02238,-0.004 -0.03731,-0.006 -0.05456,-0.004 -0.0086,8.6e-4 -0.02031,1.7e-4 -0.03457,0.0161 -0.0071,0.008 -0.01205,0.0212 -0.01179,0.0316 0,0.0104 0.0034,0.0179 0.0062,0.023 0.01142,0.0204 0.0212,0.0237 0.03457,0.0328 0.02676,0.0181 0.06662,0.0395 0.115189,0.0638 0.194264,0.0972 0.525127,0.2368 0.525127,0.2368 l 0.01491,0.006 0.550529,-0.20647 0.330644,0.26404 0.527098,0.39604 -0.421749,0.70354 0.90592,0.45311 0.810713,-0.94706 0.526284,1.38214 -0.213659,0.49838 0.615577,0.61613 0.211856,-0.3539 1.330772,1.06612 -0.479918,1.16764 0.08045,0.40294 0.637858,-0.14202 0.328194,0.59202 0.06439,1.09335 -0.942446,-0.60678 -0.251343,0.43934 -0.118302,-0.41523 -1.085654,-0.27141 0.879369,-1.62584 -0.06013,-0.0546 -0.82792,0.55233 -1.383363,0.20762 -0.0076,0.0812 0.5425,0.18105 -0.442058,0.27699 -0.413721,-0.82735 -1.148731,0.35947 0.02539,0.0799 1.080084,-0.33783 0.42289,0.84621 0.671942,-0.42032 -0.545612,-0.18219 1.229182,-0.18417 0.702906,-0.46984 -0.850855,1.57254 1.143816,0.28568 0.159751,0.56102 0.30656,-0.5361 1.006848,0.64827 -0.07488,-1.27751 -0.368496,-0.6632 -0.615576,0.1371 -0.05816,-0.29388 0.494162,-1.2024 -1.454645,-1.16534 -0.206277,0.34406 -0.499087,-0.50019 0.204323,-0.47722 -0.588212,-1.54598 -0.8602,1.0048 -0.766646,-0.38309 0.414207,-0.69107 -0.58707,-0.44066 -0.36587,-0.29322 -0.563632,0.21139 c -0.01332,-0.006 -0.20699,-0.0917 -0.372103,-0.16728 0.05002,0.0147 0.08221,0.0223 0.149266,0.0433 l 0.02589,0.009 0.494817,-0.56594 0.656541,-0.0656 0.624099,0.83243 0.931473,0.0718 0.346206,-0.0868 -0.381599,-0.50887 0.928361,0.26583 -0.297877,-1.04317 v -0.45672 l 0.722738,0.65696 1.039615,-0.81817 -0.81187,-0.81259 h -0.438292 c 0.08196,-0.0301 0.169667,-0.0392 0.30525,-0.20073 0.191672,-0.22839 0.333178,-0.63015 0.15664,-1.30162 -0.173862,-0.66127 -0.242988,-1.02547 -0.268717,-1.22291 -0.01287,-0.0987 -0.01524,-0.15623 -0.01425,-0.18662 8.25e-4,-0.0152 0.0018,-0.0236 0.0024,-0.0272 l 0.05522,-0.11036 -0.27182,0.13627 -0.202519,1.61961 -0.684392,-0.5602 0.333756,-0.93592 0.752553,-0.54807 1.179703,-0.55528 0.975885,-0.41835 1.113992,-0.55791 0.96621,-0.41458 h 1.736297 l 0.0038,-6.6e-4 c 0,0 0.782474,-0.13878 1.563601,-0.20828 0.390557,-0.0347 0.781159,-0.0524 1.070084,-0.0267 0.144468,0.0129 0.263836,0.0373 0.341955,0.072 0.03906,0.0174 0.06732,0.0374 0.08471,0.0576 0.01738,0.0201 0.02492,0.0394 0.02492,0.0644 0,0.15342 0.07956,0.26859 0.191862,0.34586 0.112298,0.0773 0.256838,0.12149 0.39946,0.14825 0.256284,0.0481 0.46081,0.0346 0.509733,0.0322 l -0.346869,1.1801 0.857742,0.14333 0.199409,0.59809 0.06995,1.04743 0.337531,0.81194 -2.11855,1.50563 -0.712736,-0.072 -0.01179,0.0305 c 0,0 -0.08497,0.22095 -0.253969,0.42392 -0.168989,0.20298 -0.413906,0.38269 -0.743704,0.31668 -0.09867,-0.0198 -0.197905,0.004 -0.291652,0.0571 -0.09375,0.053 -0.183745,0.13509 -0.270678,0.23549 -0.173862,0.2008 -0.335486,0.47741 -0.475648,0.75798 -0.273627,0.54774 -0.452318,1.08413 -0.461227,1.11074 l -1.897528,0.0676 -0.753533,-1.3723 -0.682421,-1.16092 0.693563,-0.90246 -0.554296,-1.45528 0.703402,-0.49281 -0.588212,-0.88262 -1.047811,-0.34947 -0.50907,-0.57398 3.425882,-1.30293 -0.0298,-0.0781 -3.539764,1.34623 0.605091,0.68123 1.041578,0.34767 0.527098,0.79029 -0.689961,0.48279 0.560519,1.47267 -0.699796,0.91066 0.710935,1.20864 0.778441,1.41691 2.005174,-0.072 0.0085,-0.0279 c 0,0 0.191386,-0.5732 0.468282,-1.12747 0.138437,-0.27713 0.298659,-0.54925 0.464341,-0.74059 0.08284,-0.0957 0.166925,-0.17088 0.248398,-0.21697 0.08146,-0.0461 0.158669,-0.0628 0.234137,-0.0477 0.366707,0.0734 0.644887,-0.13056 0.824152,-0.34587 0.167613,-0.20131 0.240053,-0.39111 0.250849,-0.41834 l 0.686195,0.0687 2.199002,-1.56188 -0.358664,-0.86097 -0.06931,-1.04432 -0.218568,-0.65647 -0.813674,-0.13579 0.35113,-1.19748 -0.05948,0.004 c 0,0 -0.274949,0.0169 -0.546921,-0.0341 -0.135986,-0.0255 -0.270529,-0.0686 -0.367186,-0.13514 -0.09665,-0.0665 -0.155977,-0.15106 -0.155986,-0.27649 0,-0.0447 -0.01668,-0.0866 -0.04522,-0.11955 -0.02854,-0.033 -0.06739,-0.0586 -0.114039,-0.0794 -0.09329,-0.0415 -0.218955,-0.0648 -0.368327,-0.0781 v 0 c -0.07469,-0.007 -0.155181,-0.0106 -0.240196,-0.0121 z m 6.017467,1.2662 0.447638,0.0377 v 0.0751 z m -0.330477,0.004 0.778115,0.19614 v 0.18007 l 1.38713,0.34766 -0.05816,0.34964 c -0.01303,0.001 -0.02949,0.003 -0.05702,0.002 -0.06469,-0.002 -0.172522,-0.0146 -0.339989,-0.0576 -0.328539,-0.0843 -0.903856,-0.29886 -1.810674,-0.76618 z m 22.816614,2.09421 c -0.843363,-0.0186 -1.692665,0.26511 -2.372519,0.86343 -0.482166,0.42569 -0.836122,0.97793 -1.023389,1.59567 l -0.03523,0.0402 -3.885486,7.50569 8.062455,-3.00585 0.05652,-0.0216 c 0.590622,-0.12121 1.045254,-0.39987 1.497246,-0.79668 1.450267,-1.27675 1.58007,-3.50205 0.289848,-4.97034 -0.685405,-0.77995 -1.633632,-1.18935 -2.589452,-1.21044 z m -23.517882,2.87548 -1.197734,0.21171 c -0.280979,-0.0338 -0.48553,0.01 -0.630968,0.10004 -0.146877,0.091 -0.231159,0.22705 -0.276905,0.3644 -0.09149,0.2747 -0.03588,0.56168 -0.03589,0.56168 l 0.0044,0.0254 1.787085,0.50084 1.312914,-1.02218 z m -0.02178,0.0892 0.84791,0.65335 -1.193958,0.92903 -1.689428,-0.47345 c -0.004,-0.0235 -0.04717,-0.25867 0.03161,-0.49526 0.04133,-0.12408 0.113471,-0.24037 0.240859,-0.3193 0.127387,-0.0789 0.312673,-0.12192 0.584613,-0.0879 l 0.0062,6.7e-4 0.0061,-6.7e-4 z m -19.680242,1.50744 -0.03408,0.0118 c -1.090444,0.38727 -1.606125,1.07822 -1.844767,1.67093 -0.238633,0.59271 -0.203165,1.09089 -0.203165,1.09089 l 0.0013,0.0174 1.719746,1.43496 1.504777,-2.07945 z m -0.03834,0.10659 1.083028,2.03304 -1.420551,1.96416 -1.62193,-1.35246 c -0.0016,-0.0239 -0.02858,-0.47683 0.19694,-1.03694 0.228835,-0.56836 0.719156,-1.22606 1.762513,-1.6078 z M 29.21708,134.4234 c -1.303962,-2.5e-4 -2.562656,0.7362 -3.178157,1.99942 -0.856215,1.75741 -0.143327,3.86897 1.592434,4.71648 0.578296,0.28124 1.223897,0.39543 1.865572,0.33029 l 0.05063,0.0169 8.417191,0.6955 -5.878708,-6.28755 -0.04178,-0.0439 c -0.339386,-0.49875 -0.771562,-0.81131 -1.311596,-1.0758 -0.488257,-0.23831 -1.005346,-0.35117 -1.515591,-0.35128 z m 43.491739,1.80394 -0.02048,0.004 -0.465163,0.0776 0.579858,1.97203 -1.02814,-0.96429 -0.02343,0.0546 -0.500395,1.14354 0.602474,0.52756 1.014046,-0.54167 0.423877,1.44151 1.668297,-0.14497 0.222345,-1.33573 h -0.03655 c -0.0054,-0.004 -0.01531,-0.01 -0.03473,-0.0254 -0.04247,-0.034 -0.124578,-0.10371 -0.280998,-0.24288 -0.312861,-0.27834 -0.922338,-0.83592 -2.106272,-1.9512 z m -0.02787,0.0899 c 1.167582,1.09965 1.781236,1.66072 2.092999,1.93809 0.156998,0.13968 0.240325,0.20978 0.284924,0.24549 0.01468,0.0118 0.0207,0.016 0.0285,0.0217 l -0.199408,1.19634 -1.53591,0.13382 -0.408963,-1.39264 0.03261,-0.0174 -0.0521,-0.0489 -0.592632,-2.01828 z m -0.876912,1.14222 1.027981,0.96445 -0.966699,0.51642 -0.512846,-0.44885 z M 51.86934,140.0641 v 1.7e-4 0.0836 c 0.125315,0 0.371407,0.0683 0.579034,0.1376 0.174601,0.0582 0.276787,0.0995 0.320158,0.1166 l -0.462544,0.4623 0.383897,0.76864 0.487284,-0.34898 0.136976,0.27452 0.624754,-0.34766 0.239053,0.53855 c -1.336377,0.0965 -2.065926,1.04167 -2.104298,1.09286 l -0.489247,-0.30618 0.665223,-0.79963 -0.05325,-0.0633 -2.10741,1.2657 -0.06931,0.62351 -1.381727,0.55299 -0.611802,0.88442 -0.402412,-0.24238 0.367178,1.39657 -2.223245,1.59911 v 0.72699 l 0.417973,0.97626 v 1.06481 h -0.280998 l -0.612464,-1.1578 -0.216772,-1.01282 -0.570351,0.14316 -0.281166,-0.42195 -0.971615,0.37423 0.128125,0.5133 c -0.635802,-0.30812 -1.000036,-0.39046 -1.196414,-0.37259 -0.103193,0.009 -0.16596,0.0441 -0.201856,0.08 -0.01795,0.018 -0.02942,0.0355 -0.03589,0.0495 -0.0022,0.005 -0.0018,0.005 -0.0031,0.009 l -0.349972,0.28011 -0.282969,1.20306 -0.06997,1.47332 0.0012,0.006 c 0.14003,0.63068 0.306065,1.02789 0.481219,1.27063 0.175162,0.24274 0.364435,0.3311 0.535126,0.3311 0.341399,0 0.590183,-0.33045 0.590183,-0.33045 l 0.0043,-0.006 0.273783,-0.82194 0.95982,-0.256 -0.416171,2.35857 1.077467,-0.072 0.604428,0.67188 0.06751,0.6099 -0.07111,0.8567 0.943763,0.65385 0.700935,-0.2801 0.645231,0.28633 0.496135,-0.85047 0.691597,-0.0687 0.478769,-0.5479 0.275587,0.1102 -0.257072,0.45066 -0.2248,0.82505 h 0.436656 l 0.145498,-0.65401 0.257568,-0.45115 0.507266,0.19024 0.218576,0.51018 0.643428,-0.28649 0.49105,0.35144 0.571014,-0.35751 h 0.363412 v 0.38555 l 0.248399,-0.16563 0.432226,0.37128 -0.307708,0.38489 h 0.699139 l 0.763534,0.62482 0.431572,0.0725 h 0.0026 c 1.144159,0.0347 1.692255,0.26078 1.951257,0.46984 0.129501,0.10453 0.188132,0.20451 0.214968,0.27715 0.02657,0.0719 0.02238,0.11198 0.02228,0.11283 l -0.07439,0.29617 0.442724,0.44328 0.200705,0.0502 -0.638999,0.44804 v 0.98052 l 0.546099,-0.70223 0.505965,0.12644 0.07996,0.3193 0.450086,-0.37505 0.998326,0.39981 0.07488,0.59694 0.391432,-0.235 1.371568,0.13693 1.259669,0.6304 0.32327,-0.0645 0.262482,1.05251 -1.740064,1.60289 0.211856,0.98987 -0.206285,0.89491 -0.337522,0.94592 h -0.959821 l -1.211983,0.92722 v 0.84359 l -1.166107,1.57927 -0.731906,0.14694 0.27871,0.62727 -0.679319,0.13563 v 0.43278 l -0.379636,0.30372 0.377673,0.2268 -0.07046,0.77668 0.566584,0.1412 0.137473,0.68992 1.200179,0.70665 0.0426,-0.0727 -1.167902,-0.6873 -0.140583,-0.70468 -0.548565,-0.13759 0.06865,-0.75684 -0.318849,-0.1922 0.317046,-0.25353 v -0.40408 l 0.714048,-0.14317 -0.278699,-0.62728 0.661289,-0.13201 1.201982,-1.62765 v -0.82997 l 1.156091,-0.88509 h 0.990127 l 0.359158,-1.00594 0.211856,-0.91804 -0.206285,-0.96133 1.742026,-1.60403 -0.2941,-1.1783 -0.373413,0.0745 -1.247862,-0.62416 -1.414337,-0.14202 -0.305409,0.18351 -0.06439,-0.51888 -1.091067,-0.43622 -0.385862,0.32159 -0.05948,-0.23861 -0.608035,-0.15186 -0.429112,0.55233 v -0.69238 l 0.753533,-0.52806 -0.356045,-0.0894 -0.393226,-0.39359 0.06504,-0.25895 v -0.003 c 0,0 0.0047,-0.0635 -0.0272,-0.14989 -0.03193,-0.0864 -0.100627,-0.19975 -0.241017,-0.31307 -0.280151,-0.22613 -0.846241,-0.45256 -1.995173,-0.48838 l -0.407496,-0.0676 -0.768609,-0.62974 h -0.554768 l 0.249539,-0.31241 -0.5425,-0.46558 -0.170238,0.11414 v -0.31241 h -0.471881 l -0.543809,0.34029 -0.484171,-0.34652 -0.610007,0.27158 -0.199406,-0.46558 -0.606886,-0.22812 -0.29968,0.52445 -0.133209,0.60121 h -0.260026 l 0.193174,-0.70911 0.29968,-0.52495 -0.420432,-0.16858 -0.495966,0.56774 -0.701765,0.07 -0.479256,0.82243 -0.608689,-0.2701 -0.691765,0.27699 -0.86692,-0.60121 0.06751,-0.81636 -0.07127,-0.64466 -0.649661,-0.72256 -1.011756,0.0676 0.420432,-2.38268 -1.130217,0.30192 -0.282969,0.84916 c -0.0057,0.007 -0.23824,0.29371 -0.520219,0.29371 -0.142731,0 -0.302567,-0.0685 -0.466966,-0.29634 -0.163803,-0.22701 -0.327381,-0.61428 -0.465657,-1.23455 l 0.06882,-1.45348 0.274278,-1.16714 0.349327,-0.28027 0.0024,-0.0154 c 0,0 0,-1.7e-4 0.0026,-0.006 0.0029,-0.006 0.0081,-0.0157 0.01851,-0.0261 0.02067,-0.0207 0.06222,-0.0471 0.150574,-0.0551 0.176706,-0.0161 0.537727,0.0498 1.230994,0.3967 l 0.08176,0.0408 -0.152378,-0.61038 0.839714,-0.32307 0.27625,0.41474 0.54365,-0.13579 0.201369,0.93904 0.64097,1.21306 h 0.415516 v -1.16649 l -0.417487,-0.9756 v -0.66697 l 2.234394,-1.6078 -0.329495,-1.25324 0.294102,0.17662 0.641633,-0.92854 1.405158,-0.56217 0.06996,-0.63154 1.858365,-1.11632 -0.567893,0.68304 0.631138,0.39425 0.02294,-0.031 c 0,0 0.754826,-1.02973 2.127728,-1.09843 l 0.06063,-0.003 -0.321961,-0.72518 -0.628521,0.34898 -0.141892,-0.28322 -0.487284,0.34833 -0.312784,-0.62597 0.510874,-0.51134 -0.05881,-0.0236 c 0,0 -0.175423,-0.0705 -0.385701,-0.1407 -0.210287,-0.0702 -0.451807,-0.14137 -0.605091,-0.14137 z m 30.848597,1.53039 0.446481,1.56451 -0.95425,0.81948 0.05456,0.0638 0.995707,-0.85409 -0.389466,-1.36361 0.611808,0.48952 0.412403,-0.13759 0.748123,0.88459 0.06374,-0.054 -0.784665,-0.92788 -0.422889,0.14071 z m -3.587942,0.57087 -0.05767,0.0608 0.0038,0.004 1.895552,2.07403 -0.229228,0.91608 -0.752879,-0.0627 0.05882,-0.29683 0.289683,-0.58021 -1.922753,-1.8533 -1.499205,0.64335 -1.530174,2.29658 -1.898178,0.4072 -0.814977,-2.17441 c 0.0044,-0.009 0.09549,-0.20994 0.403227,-0.42638 0.314864,-0.22146 0.845235,-0.44574 1.708606,-0.44574 v -0.0843 c -0.877908,0 -1.427525,0.22946 -1.756942,0.46115 -0.329396,0.23169 -0.440257,0.46984 -0.440257,0.46984 l -0.0074,0.0162 0.85447,2.28084 2.002214,-0.42951 1.535094,-2.30444 1.425475,-0.61121 1.838694,1.77147 -0.267559,0.53544 -0.0798,0.39982 0.918368,0.0769 0.232168,-0.93165 1.083692,1.18519 0.294762,-1.4753 -0.08241,-0.0167 -0.262485,1.31277 -1.008812,-1.10384 0.105843,-0.42524 z m 0.41175,0.45066 1.533946,1.26997 -0.07996,0.31995 z m -0.828576,0.57529 -0.567238,0.16235 0.01113,0.0408 0.431084,1.50924 0.565923,-0.24222 z m -0.05636,0.10348 0.395037,1.31901 -0.409289,0.17596 -0.393237,-1.37854 z m -40.410913,0.0123 -0.702906,4.85391 0.781553,0.0712 1.45972,5.14827 2.033025,1.05318 1.46201,1.04497 3.481604,2.02123 0.733711,0.6012 -0.684232,1.02759 0.561669,3.44437 1.403849,1.54532 2.915506,2.36267 c 0.0013,0.007 0.0019,0.0117 0.0055,0.0272 0.01227,0.0502 0.04065,0.15687 0.106011,0.38801 0.13071,0.46226 0.409216,1.42086 1.00127,3.4078 l 0.0031,0.0118 4.884799,4.39948 0.05587,-0.062 -4.866278,-4.3839 c -0.588044,-1.97361 -0.86827,-2.93605 -0.998325,-3.39599 -0.06524,-0.23073 -0.0935,-0.33705 -0.10519,-0.3849 -0.0054,-0.0221 -0.0068,-0.0306 -0.0069,-0.0305 -3.3e-5,0.002 -8.24e-4,0.005 -8.24e-4,0.005 8e-6,-8e-5 -0.0012,0.006 -0.0012,0.006 8e-6,-6e-5 -0.0056,0.0118 -0.0055,0.0118 1.7e-5,-2e-5 -0.0069,0.008 -0.0069,0.008 1.7e-5,-2e-5 -0.01114,0.007 -0.01114,0.007 1.6e-5,0 -0.0136,0.004 -0.0136,0.004 8e-6,0 -0.01245,-0.001 -0.01245,-0.001 2.5e-5,1e-5 -0.01429,-0.006 -0.01426,-0.006 9e-6,1e-5 -8.24e-4,-10e-4 -0.0018,-0.002 l 0.06373,-0.0508 c 0,0 -0.0029,-0.005 -0.0033,-0.005 -5.1e-5,-7e-5 -0.0049,-0.006 -0.005,-0.006 l -0.0031,-0.003 -0.0031,-0.003 -2.919927,-2.36595 -1.382877,-1.5217 -0.552332,-3.3873 0.708485,-1.06416 -0.798272,-0.65336 -3.484054,-2.02237 -1.463328,-1.04629 -2.006314,-1.0389 -1.465785,-5.16927 -0.750581,-0.0682 0.690448,-4.76633 z m -0.348664,0.001 c -0.616583,5.69139 -0.962546,7.9475 -0.574781,10.48187 l -0.07291,-0.0763 0.4396,2.7861 2.857345,7.39369 0.0616,-0.0239 c 0.01701,0.0144 0.03626,0.0309 0.06357,0.058 0.06759,0.0671 0.161145,0.16822 0.266745,0.28453 0.04503,0.0496 0.09304,0.10648 0.141238,0.16055 l -0.0012,6.4e-4 7.704285,9.09463 14.373055,2.37448 11.137543,-3.52933 -0.0019,0.0477 0.05325,-0.011 c 0,0 0.01655,-0.004 0.03654,-0.0107 0.0074,-0.003 0.01595,-0.009 0.0241,-0.0123 l 0.07242,0.0272 0.0403,-0.0725 -0.05505,-0.0417 c -0.0016,-0.006 -0.0032,-0.0113 -0.0048,-0.0167 l 5.301953,-4.34175 3.418357,-4.60906 1.25523,-2.58274 -0.07487,-0.0366 -1.252127,2.57603 -3.407872,4.59348 -5.307352,4.3465 c -0.02134,-0.009 -0.04675,-0.0178 -0.0798,-0.0271 -0.262834,-0.0739 -0.39408,-0.11059 -0.44402,-0.12398 -0.01249,-0.003 -0.01912,-0.005 -0.02473,-0.006 -9.52e-4,-1.6e-4 -0.0013,1.7e-4 -0.0025,0 -0.0013,-1.6e-4 -0.0073,-6.3e-4 -0.0074,-6.3e-4 -5e-5,0 -0.02736,0.01 -0.02736,0.01 -7e-6,1e-5 -1.6e-5,0.0638 0,0.0638 2.5e-5,2e-5 0.008,0.006 0.0081,0.006 5.1e-5,3e-5 0.0025,9.6e-4 0.0033,0.001 0.0053,0.002 0.0058,0.002 0.0087,0.003 0.01154,0.004 0.03572,0.0106 0.06865,0.0203 0.129848,0.0383 0.38166,0.11072 0.388981,0.11283 l -11.133784,3.52803 -14.323073,-2.36578 -6.877674,-8.11903 c 0.0016,-0.006 0.0038,-0.0143 0.0038,-0.0143 -4.2e-5,-8e-5 -0.0029,-0.006 -0.0038,-0.007 -8.25e-4,-10e-4 -0.0012,-0.002 -0.0018,-0.003 -0.0019,-0.003 -0.0034,-0.005 -0.0055,-0.007 -0.009,-0.0116 -0.02646,-0.0327 -0.05145,-0.0626 -0.04997,-0.0599 -0.129468,-0.15407 -0.225941,-0.26649 -0.192973,-0.22484 -0.45174,-0.52183 -0.663915,-0.75552 -0.106087,-0.11685 -0.200312,-0.21782 -0.270017,-0.28699 -0.03486,-0.0346 -0.06312,-0.061 -0.08553,-0.0787 -0.01119,-0.009 -0.01998,-0.0156 -0.03277,-0.0212 -0.0057,-0.003 -0.01347,-0.005 -0.02572,-0.004 l -2.8154,-7.28676 -0.39815,-2.52141 0.05702,-0.0538 -0.0082,-0.009 c -0.414434,-2.56817 -0.06681,-4.7962 0.55937,-10.57616 z m 47.156687,0.0266 -1.813962,0.29077 v 1.32015 l 1.394016,0.48854 0.06751,2.49534 -2.557494,-0.62236 -0.34556,0.75995 -2.176227,-1.02152 -0.633435,-1.40871 -3.653144,0.56217 -0.987025,0.1412 -1.420067,1.20815 0.140088,0.90918 -1.587844,1.65798 0.06063,0.0584 1.616352,-1.68849 -0.139433,-0.90361 1.366166,-1.16157 0.963585,-0.13825 3.590561,-0.55282 0.61984,1.37968 2.281413,1.07039 0.351777,-0.77405 2.596497,0.6322 -0.07177,-2.66344 -1.392215,-0.48771 v -1.18897 l 1.668959,-0.26763 1.031748,3.7189 -2.921729,14.27505 -2.432486,4.45162 -0.900349,0.97053 -1.949454,1.67241 -1.66224,1.66421 -2.028593,0.20319 v -0.0818 l 0.691109,-1.10565 1.401385,-2.59521 -0.206942,-0.82752 1.594081,-1.38706 0.210547,-1.19454 0.562324,-1.19617 -0.696851,-1.74293 0.711598,-1.56697 -0.798106,-0.14497 -0.424198,-0.84851 -1.631761,0.42639 -1.104824,0.13825 -2.623864,-0.55299 -0.961781,-1.37526 -0.482369,-1.65618 0.207427,-0.97068 -0.0693,-2.15259 1.037803,-1.59238 -0.07045,-0.0459 -1.052233,1.61403 0.06997,2.16948 -0.209884,0.98118 0.492357,1.69012 0.988988,1.41331 2.669569,0.56282 1.124,-0.1407 1.57162,-0.41031 0.412571,0.82489 0.73371,0.13398 -0.6744,1.48448 0.03818,0.0174 -0.03866,0.0154 0.689137,1.72555 -0.551667,1.17404 -0.206942,1.17567 -1.610628,1.4015 0.211697,0.84604 -1.384681,2.56356 -0.702251,1.125 v 0.19778 l 2.150174,-0.21516 1.681242,-1.68274 1.950769,-1.67357 0.910997,-0.98183 2.442971,-4.47196 2.929104,-14.30736 z m -2.143954,2.35168 -0.236593,0.78833 0.03654,0.0143 0.93082,0.35832 0.403721,-0.40408 z m 0.04768,0.13267 0.95556,0.63712 -0.292962,0.29323 -0.844143,-0.32422 z m 10.307494,17.87801 c -0.239279,0.003 -0.478761,0.0317 -0.714702,0.0849 l -0.05226,-0.0107 -8.439641,0.32323 6.59176,5.53383 0.04669,0.0385 c 0.396882,0.45425 0.863472,0.71263 1.431382,0.91017 1.825272,0.63208 3.822726,-0.35358 4.461567,-2.20147 v 0 c 0.63873,-1.84775 -0.32301,-3.85818 -2.148047,-4.49049 -0.379939,-0.13097 -0.778106,-0.19392 -1.176919,-0.1881 z m -52.659999,0.11611 0.0213,0.005 c -0.0013,0.005 -0.0064,0.0119 -0.01246,0.0175 z m 3.422286,4.3693 -7.782605,3.67085 -0.05456,0.0262 c -0.578397,0.17028 -1.008107,0.48606 -1.425309,0.91935 -1.338381,1.3938 -1.281529,3.62221 0.126985,4.97723 1.408438,1.35486 3.635114,1.32345 4.973597,-0.07 0.444869,-0.4646 0.751319,-1.04443 0.886248,-1.67569 l 0.03163,-0.0431 z m 18.626701,7.97029 -3.05068,8.0518 -0.02099,0.0569 c -0.297883,0.52464 -0.387789,1.05065 -0.387178,1.65241 0.0046,1.93315 1.592043,3.49654 3.545672,3.49193 1.953473,-0.005 3.533442,-1.57549 3.52911,-3.50849 -0.0025,-0.64352 -0.184398,-1.27375 -0.525461,-1.82165 l -0.0072,-0.053 z"
       id="path6274" />
  </g>
</svg>
